<svg version="1.1" id="Layer_1"
    xmlns="http://www.w3.org/2000/svg"
    xmlns:xlink="http://www.w3.org/1999/xlink" x="0px" y="0px" viewBox="0 0 512 512" style="enable-background:new 0 0 512 512;" xml:space="preserve">
    <g>
        <g>
            <path fill="#FF3B86" d="M396,252.124h-25V115C371,51.589,319.411,0,256,0S141,51.589,141,115v137.124h-25c-8.284,0-15,6.716-15,15V497
			c0,8.284,6.716,15,15,15h280c8.284,0,15-6.716,15-15V267.124C411,258.84,404.284,252.124,396,252.124z M171,115
			c0-46.869,38.131-85,85-85s85,38.131,85,85v137.124H171V115z M381,482H131V282.124h250V482z"/>
        </g>
    </g>
    <g>
        <g>
            <path fill="#FF3B86" d="M256,322.063c-22.056,0-40,17.944-40,40c0,16.752,10.357,31.124,25,37.071v27.929c0,8.284,6.716,15,15,15s15-6.716,15-15
			v-27.929c14.643-5.947,25-20.318,25-37.071C296,340.007,278.056,322.063,256,322.063z M256,372.063c-5.514,0-10-4.486-10-10
			c0-5.514,4.486-10,10-10c5.514,0,10,4.486,10,10C266,367.577,261.514,372.063,256,372.063z"/>
        </g>
    </g>
    <g>
    </g>
    <g>
    </g>
    <g>
    </g>
    <g>
    </g>
    <g>
    </g>
    <g>
    </g>
    <g>
    </g>
    <g>
    </g>
    <g>
    </g>
    <g>
    </g>
    <g>
    </g>
    <g>
    </g>
    <g>
    </g>
    <g>
    </g>
    <g>
    </g>
</svg>
